<?xml version="1.0" encoding="utf-8"?>
<!-- Generator: Adobe Illustrator 16.0.0, SVG Export Plug-In . SVG Version: 6.00 Build 0)  -->
<!DOCTYPE svg PUBLIC "-//W3C//DTD SVG 1.1//EN" "http://www.w3.org/Graphics/SVG/1.1/DTD/svg11.dtd">
<svg version="1.1" id="レイヤー_1" xmlns="http://www.w3.org/2000/svg" xmlns:xlink="http://www.w3.org/1999/xlink" x="0px"
	 y="0px" width="1024px" height="886.688px" viewBox="-604 0 1024 886.688" enable-background="new -604 0 1024 886.688"
	 xml:space="preserve">
<g>
	<g>
		<path fill="#64707A" d="M-322.395,424.034c-128.003,51.21-256.005,12.805-281.605-38.4c0,0,0,204.811,76.8,256.011
			c76.802,51.199,217.6,38.399,268.805-25.601L-322.395,424.034z"/>
		<path fill="#F8DABC" d="M-181.598,142.431h396.793c0,0,115.2,345.612,115.2,499.213c0,153.605-64.002,230.405-217.6,243.205
			C-40.793,897.65-360.8,846.444-386.398,641.644C-412,436.838-181.598,142.431-181.598,142.431"/>
		<path fill="#64707A" d="M87.195,321.633c-189.815-31.645-332.79-89.6-307.19-179.202c25.6-89.598,102.4-153.6,191.986-140.8
			C61.593,14.431,420,104.034,420,193.633C420,283.233,163.998,334.438,87.195,321.633"/>
	</g>
	<g enable-background="new    ">
		<path fill="#224444" d="M-48.942,537.223c-0.071,0.563-0.281,1.036-0.63,1.421c-0.352,0.386-0.893,0.718-1.629,0.997
			c-0.735,0.28-1.681,0.49-2.837,0.631c-1.155,0.14-2.574,0.21-4.254,0.21s-3.065-0.07-4.15-0.21
			c-1.088-0.143-1.928-0.353-2.521-0.631c-0.596-0.277-0.999-0.611-1.208-0.997c-0.21-0.385-0.246-0.858-0.105-1.421l11.662-58.416
			c0.35-2.029,0.646-3.956,0.893-5.777c0.245-1.822,0.368-3.643,0.368-5.464c0-4.482-0.858-8.055-2.574-10.719
			c-1.717-2.659-4.711-3.991-8.982-3.991c-3.503,0-7.128,1.069-10.875,3.206c-3.748,2.136-7.302,5.077-10.664,8.823
			c-3.363,3.748-6.34,8.196-8.931,13.345c-2.592,5.147-4.483,10.733-5.674,16.758l-8.405,42.235
			c-0.142,0.563-0.387,1.034-0.735,1.418c-0.351,0.389-0.893,0.721-1.628,1c-0.736,0.278-1.682,0.488-2.838,0.631
			c-1.155,0.14-2.574,0.21-4.255,0.21c-1.68,0-3.064-0.07-4.15-0.21c-1.087-0.143-1.91-0.353-2.47-0.631
			c-0.561-0.279-0.945-0.613-1.155-1c-0.21-0.384-0.281-0.855-0.21-1.418l11.663-58.416c0.489-2.102,0.822-4.168,0.998-6.199
			c0.175-2.03,0.263-3.923,0.263-5.675c0-4.27-0.876-7.686-2.626-10.243c-1.752-2.557-4.728-3.834-8.932-3.834
			c-3.572,0-7.215,1.067-10.926,3.203c-3.713,2.139-7.25,5.08-10.612,8.826c-3.361,3.748-6.339,8.196-8.93,13.345
			c-2.592,5.146-4.483,10.733-5.674,16.756l-8.405,42.235c-0.142,0.563-0.385,1.036-0.735,1.42
			c-0.351,0.387-0.876,0.719-1.576,0.998c-0.701,0.278-1.628,0.49-2.785,0.63c-1.155,0.141-2.574,0.211-4.254,0.211
			c-1.752,0-3.17-0.07-4.256-0.211c-1.086-0.142-1.927-0.352-2.521-0.63c-0.596-0.277-0.981-0.611-1.155-0.998
			c-0.176-0.384-0.193-0.857-0.052-1.42l19.017-94.662c0.068-0.49,0.262-0.947,0.577-1.367c0.315-0.419,0.805-0.77,1.472-1.05
			c0.665-0.279,1.505-0.472,2.521-0.578c1.015-0.104,2.223-0.156,3.625-0.156c1.472,0,2.679,0.053,3.625,0.156
			c0.946,0.107,1.682,0.299,2.207,0.578c0.525,0.28,0.857,0.631,0.999,1.05c0.14,0.42,0.174,0.877,0.105,1.367l-3.573,18.07
			c1.051-2.38,2.784-4.902,5.201-7.565c2.417-2.662,5.235-5.112,8.458-7.354c3.222-2.24,6.741-4.099,10.56-5.568
			c3.817-1.472,7.723-2.206,11.714-2.206c4.203,0,7.809,0.578,10.822,1.734c3.01,1.154,5.48,2.73,7.406,4.727
			c1.925,1.995,3.345,4.378,4.256,7.146c0.909,2.768,1.471,5.796,1.682,9.088c1.399-2.452,3.326-5.008,5.778-7.67
			c2.451-2.662,5.288-5.096,8.51-7.302c3.221-2.207,6.724-4.046,10.506-5.517c3.783-1.472,7.634-2.206,11.557-2.206
			c4.692,0,8.616,0.666,11.768,1.996c3.152,1.332,5.708,3.152,7.67,5.465c1.959,2.31,3.362,5.008,4.203,8.09
			c0.84,3.082,1.26,6.443,1.26,10.086c0,2.454-0.141,4.868-0.421,7.25c-0.28,2.382-0.667,4.832-1.155,7.354L-48.942,537.223z"/>
	</g>
	<g>
		<g enable-background="new    ">
			<path fill="#224444" d="M143.059,524.423c-0.071,0.563-0.281,1.036-0.63,1.42c-0.352,0.387-0.893,0.719-1.628,0.998
				c-0.736,0.28-1.682,0.49-2.838,0.63c-1.155,0.141-2.574,0.21-4.255,0.21s-3.065-0.069-4.15-0.21
				c-1.087-0.142-1.928-0.352-2.521-0.63c-0.596-0.277-0.998-0.611-1.208-0.998c-0.21-0.384-0.246-0.857-0.105-1.42l11.662-58.416
				c0.35-2.03,0.647-3.956,0.893-5.777c0.245-1.822,0.368-3.643,0.368-5.465c0-4.481-0.858-8.054-2.575-10.718
				c-1.717-2.66-4.711-3.991-8.982-3.991c-3.503,0-7.128,1.069-10.875,3.205c-3.748,2.137-7.302,5.078-10.664,8.824
				c-3.362,3.748-6.34,8.196-8.931,13.344c-2.592,5.148-4.483,10.734-5.674,16.759l-8.405,42.235
				c-0.142,0.563-0.387,1.034-0.735,1.418c-0.351,0.389-0.893,0.721-1.628,1c-0.736,0.278-1.682,0.488-2.838,0.63
				c-1.155,0.141-2.574,0.21-4.255,0.21c-1.68,0-3.064-0.069-4.15-0.21c-1.087-0.142-1.91-0.352-2.47-0.63
				c-0.561-0.279-0.945-0.613-1.155-1c-0.21-0.384-0.281-0.855-0.21-1.418l11.663-58.416c0.489-2.102,0.822-4.168,0.998-6.2
				c0.174-2.029,0.262-3.922,0.262-5.674c0-4.27-0.876-7.686-2.626-10.244c-1.752-2.555-4.728-3.834-8.932-3.834
				c-3.571,0-7.215,1.069-10.926,3.205c-3.713,2.138-7.25,5.079-10.612,8.825c-3.361,3.748-6.339,8.196-8.93,13.344
				c-2.592,5.146-4.483,10.734-5.674,16.756l-8.405,42.236c-0.142,0.563-0.385,1.036-0.735,1.42
				c-0.351,0.387-0.876,0.718-1.576,0.998c-0.701,0.278-1.628,0.49-2.785,0.63c-1.155,0.141-2.574,0.21-4.254,0.21
				c-1.752,0-3.17-0.069-4.256-0.21c-1.086-0.142-1.927-0.352-2.521-0.63c-0.596-0.277-0.981-0.611-1.155-0.998
				c-0.176-0.384-0.193-0.857-0.052-1.42L23.6,429.758c0.068-0.489,0.262-0.946,0.577-1.366c0.316-0.42,0.805-0.77,1.472-1.051
				c0.665-0.278,1.505-0.472,2.521-0.577c1.015-0.105,2.223-0.157,3.625-0.157c1.472,0,2.679,0.053,3.625,0.157
				c0.946,0.106,1.682,0.299,2.207,0.577c0.525,0.281,0.857,0.631,0.999,1.051c0.14,0.42,0.174,0.876,0.105,1.366l-3.573,18.071
				c1.051-2.38,2.784-4.902,5.201-7.565c2.417-2.662,5.235-5.112,8.458-7.355c3.222-2.24,6.741-4.098,10.56-5.568
				c3.817-1.471,7.723-2.206,11.714-2.206c4.203,0,7.809,0.577,10.822,1.734c3.01,1.155,5.48,2.731,7.406,4.727
				s3.345,4.378,4.256,7.145c0.909,2.769,1.47,5.797,1.681,9.089c1.399-2.452,3.326-5.008,5.778-7.671
				c2.451-2.661,5.288-5.095,8.51-7.302c3.221-2.206,6.724-4.044,10.506-5.516c3.783-1.471,7.634-2.206,11.557-2.206
				c4.692,0,8.616,0.666,11.768,1.996c3.152,1.332,5.708,3.152,7.67,5.464c1.96,2.311,3.362,5.008,4.203,8.09
				c0.84,3.083,1.26,6.444,1.26,10.087c0,2.453-0.141,4.867-0.421,7.25c-0.28,2.382-0.667,4.831-1.155,7.354L143.059,524.423z"/>
		</g>
	</g>
</g>
</svg>
