<?xml version="1.0" encoding="utf-8"?>
<!-- Generator: Adobe Illustrator 16.0.0, SVG Export Plug-In . SVG Version: 6.00 Build 0)  -->
<!DOCTYPE svg PUBLIC "-//W3C//DTD SVG 1.1//EN" "http://www.w3.org/Graphics/SVG/1.1/DTD/svg11.dtd">
<svg version="1.1" id="レイヤー_1" xmlns="http://www.w3.org/2000/svg" xmlns:xlink="http://www.w3.org/1999/xlink" x="0px"
	 y="0px" width="1023.999px" height="489.038px" viewBox="-1114.095 209.103 1023.999 489.038"
	 enable-background="new -1114.095 209.103 1023.999 489.038" xml:space="preserve">
<polygon fill="#338811" stroke="#FFFFFF" stroke-width="2" stroke-miterlimit="10" points="-1110.99,697.141 -433.853,210.505 
	-92.02,697.141 "/>
<g>
	<path fill="#FFFFFF" d="M-480.936,378.7c-11.837,13.045-23.955,26.26-36.356,39.647c-12.405,13.387-25.28,26.994-38.63,40.823
		c-0.664,0.687-1.349,1.175-2.059,1.471c-0.711,0.294-1.54,0.32-2.486,0.074c-0.947-0.244-2.012-0.811-3.195-1.692
		c-1.185-0.883-2.582-2.155-4.19-3.823c-1.516-1.568-2.676-2.967-3.48-4.193c-0.806-1.226-1.278-2.282-1.42-3.164
		c-0.143-0.883-0.095-1.667,0.142-2.354c0.236-0.685,0.639-1.322,1.208-1.913l93.023-96.505c1.23-1.175,2.437-2.154,3.623-2.94
		c1.183-0.784,2.816-1.178,4.899-1.178c1.608,0,3.053,0.321,4.331,0.957c1.278,0.639,2.674,1.691,4.189,3.163l93.023,96.505
		c0.569,0.589,0.97,1.229,1.208,1.913c0.236,0.688,0.284,1.472,0.142,2.354c-0.142,0.882-0.616,1.938-1.42,3.162
		c-0.805,1.227-1.965,2.625-3.479,4.193c-1.611,1.668-3.007,2.942-4.19,3.823c-1.185,0.884-2.25,1.448-3.195,1.692
		c-0.948,0.246-1.775,0.22-2.486-0.074c-0.71-0.294-1.398-0.782-2.06-1.471c-13.351-13.829-26.227-27.437-38.63-40.822
		c-12.404-13.388-24.522-26.604-36.357-39.646v206.103c0,0.784-0.213,1.473-0.639,2.061c-0.426,0.588-1.089,1.078-1.987,1.471
		c-0.9,0.392-2.038,0.736-3.409,1.03c-1.373,0.294-3.053,0.442-5.042,0.442s-3.67-0.148-5.042-0.442
		c-1.374-0.294-2.51-0.639-3.41-1.03c-0.9-0.393-1.562-0.883-1.988-1.471c-0.426-0.59-0.639-1.276-0.639-2.061V378.7z"/>
</g>
</svg>
