<?xml version="1.0" encoding="utf-8"?>
<!-- Generator: Adobe Illustrator 16.0.0, SVG Export Plug-In . SVG Version: 6.00 Build 0)  -->
<!DOCTYPE svg PUBLIC "-//W3C//DTD SVG 1.1//EN" "http://www.w3.org/Graphics/SVG/1.1/DTD/svg11.dtd">
<svg version="1.1" id="レイヤー_1" xmlns="http://www.w3.org/2000/svg" xmlns:xlink="http://www.w3.org/1999/xlink" x="0px"
	 y="0px" width="1024px" height="117.815px" viewBox="976 0 1024 117.815" enable-background="new 976 0 1024 117.815"
	 xml:space="preserve">
<g>
	<g>
		<g>
			<path fill="#F8DABC" d="M1239.607,30.827l39.474-10.233c0,0,38.011,45.321,38.011,55.555c0,10.232-29.239,27.777-33.625,29.238
				c-4.386,1.462-38.013,2.924-39.475,0c-1.461-2.924-10.234-26.315-10.234-33.625C1233.759,64.453,1239.607,30.827,1239.607,30.827
				"/>
			<path fill="#00E784" d="M1242.531,41.061c-8.772-10.234-4.387-17.543,0-20.468c0,0-1.462-5.848,0-8.772
				c1.461-2.923,10.232-2.923,13.156-1.461c0,0,7.31-8.771,14.622-10.234c7.309-1.461,16.081,10.234,19.005,11.695
				c0,0,7.31-7.309,10.233-4.385s11.696,14.62,10.234,17.543c-1.463,2.924-4.386,8.771-8.771,7.31s-2.925-4.386-1.462-7.31h-5.848
				c0,0,2.924,2.924-1.461,5.848C1287.853,33.751,1242.531,41.061,1242.531,41.061"/>
		</g>
		<g enable-background="new    ">
			<path fill="#224444" d="M1281.324,54.14c0,0.105-0.01,0.212-0.028,0.321c-0.02,0.109-0.053,0.212-0.1,0.307
				c-0.314,0.866-0.657,1.769-1.028,2.706c-0.371,0.938-0.805,1.918-1.299,2.941c-0.495,1.023-1.073,2.091-1.734,3.206
				c-0.662,1.114-1.449,2.284-2.363,3.512l-3.697,5.04c-0.058,0.076-0.129,0.143-0.215,0.201c-0.085,0.056-0.189,0.107-0.313,0.15
				s-0.274,0.074-0.449,0.092c-0.177,0.019-0.384,0.029-0.621,0.029c-0.257,0-0.469-0.012-0.636-0.036
				c-0.167-0.024-0.293-0.064-0.379-0.122c-0.085-0.057-0.123-0.133-0.113-0.228s0.066-0.209,0.171-0.343l3.483-4.469l-2.127-12.549
				c-0.02-0.114-0.033-0.219-0.043-0.314c-0.009-0.096-0.014-0.176-0.014-0.243c0-0.104,0.016-0.193,0.05-0.264
				s0.098-0.129,0.192-0.171c0.096-0.043,0.222-0.071,0.379-0.086c0.157-0.014,0.35-0.021,0.578-0.021
				c0.257,0,0.459,0.007,0.607,0.021c0.146,0.015,0.262,0.039,0.342,0.072c0.081,0.033,0.139,0.083,0.171,0.15
				c0.033,0.066,0.056,0.147,0.064,0.243l1.671,10.479h0.028c0.59-0.828,1.123-1.671,1.599-2.527
				c0.476-0.857,0.914-1.725,1.314-2.606c0.398-0.88,0.768-1.771,1.105-2.67s0.654-1.811,0.949-2.734
				c0.02-0.076,0.055-0.14,0.107-0.192c0.052-0.053,0.129-0.098,0.229-0.136s0.235-0.064,0.406-0.079
				c0.171-0.014,0.386-0.021,0.643-0.021c0.428,0,0.714,0.029,0.856,0.085C1281.254,53.94,1281.324,54.026,1281.324,54.14z"/>
		</g>
		<g enable-background="new    ">
			<path fill="#224444" d="M1260.857,54.14c0,0.105-0.01,0.212-0.029,0.321c-0.02,0.109-0.052,0.212-0.1,0.307
				c-0.313,0.866-0.656,1.769-1.028,2.706c-0.371,0.938-0.804,1.918-1.298,2.941c-0.496,1.023-1.074,2.091-1.735,3.206
				c-0.661,1.114-1.449,2.284-2.362,3.512l-3.698,5.04c-0.057,0.076-0.128,0.143-0.214,0.201c-0.086,0.056-0.19,0.107-0.314,0.15
				c-0.123,0.043-0.273,0.074-0.449,0.092c-0.176,0.019-0.384,0.029-0.621,0.029c-0.257,0-0.469-0.012-0.636-0.036
				c-0.166-0.024-0.292-0.064-0.378-0.122c-0.085-0.057-0.124-0.133-0.114-0.228s0.066-0.209,0.172-0.343l3.483-4.469l-2.127-12.549
				c-0.02-0.114-0.033-0.219-0.043-0.314c-0.01-0.096-0.015-0.176-0.015-0.243c0-0.104,0.017-0.193,0.051-0.264
				c0.033-0.071,0.097-0.129,0.192-0.171c0.096-0.043,0.221-0.071,0.378-0.086c0.157-0.014,0.351-0.021,0.579-0.021
				c0.257,0,0.459,0.007,0.606,0.021c0.147,0.015,0.262,0.039,0.343,0.072s0.139,0.083,0.171,0.15s0.055,0.147,0.064,0.243
				l1.67,10.479h0.029c0.589-0.828,1.122-1.671,1.599-2.527c0.476-0.857,0.914-1.725,1.313-2.606c0.399-0.88,0.769-1.771,1.106-2.67
				s0.654-1.811,0.949-2.734c0.019-0.076,0.054-0.14,0.107-0.192c0.052-0.053,0.128-0.098,0.228-0.136
				c0.101-0.038,0.235-0.064,0.406-0.079c0.171-0.014,0.386-0.021,0.643-0.021c0.429,0,0.714,0.029,0.857,0.085
				C1260.786,53.94,1260.857,54.026,1260.857,54.14z"/>
		</g>
	</g>
	<g>
		<g>
			<path fill="#FF00C1" d="M1914.477,58.605c-5.848,2.924-1.461,42.397,1.462,48.246c0,0,8.771,8.771,16.082,7.309l4.384-35.086
				L1914.477,58.605z"/>
			<path fill="#F8DABC" d="M1927.635,13.284h59.939c0,0,5.849,61.402,5.849,52.63c0-8.771-2.925,21.929-7.31,24.854
				c-4.386,2.924-61.402,2.924-67.25-4.386c-5.848-7.309-8.773-27.777-8.773-35.086
				C1910.092,43.985,1927.635,13.284,1927.635,13.284"/>
			<path fill="#FF00C1" d="M1989.647,28.634c5.045,4.693,11.771,39.115,10.09,45.373c-1.681,6.26-10.09,18.774-10.09,28.16
				c0,9.389,1.681,15.649,1.681,15.649h-28.588c0,0-1.684-25.035,6.725-32.857C1977.875,77.133,1989.647,28.634,1989.647,28.634"/>
			<path fill="#FF00C1" d="M1989.036,30.827c0,0-78.944-5.848-77.483-8.771c0,0,20.468-20.467,30.701-20.467s42.397,0,48.245,7.309
				C1996.346,16.208,1989.036,30.827,1989.036,30.827"/>
		</g>
		<g enable-background="new    ">
			<path fill="#224444" d="M1932.8,52.469c-0.01,0.076-0.038,0.143-0.086,0.2c-0.048,0.057-0.113,0.103-0.199,0.136
				c-0.087,0.033-0.199,0.059-0.336,0.078c-0.139,0.019-0.308,0.029-0.507,0.029c-0.19,0-0.35-0.01-0.479-0.029
				c-0.128-0.019-0.229-0.045-0.3-0.078c-0.071-0.033-0.119-0.078-0.143-0.136c-0.023-0.057-0.026-0.124-0.007-0.2l0.471-2.412
				c-0.152,0.323-0.393,0.664-0.721,1.02c-0.329,0.357-0.715,0.688-1.156,0.992c-0.442,0.304-0.929,0.552-1.457,0.742
				c-0.527,0.19-1.063,0.286-1.606,0.286c-0.646,0-1.191-0.089-1.634-0.265c-0.442-0.176-0.8-0.418-1.071-0.728
				c-0.271-0.31-0.466-0.675-0.586-1.1c-0.118-0.423-0.179-0.886-0.179-1.392c0-0.314,0.021-0.635,0.064-0.963
				c0.043-0.329,0.098-0.659,0.164-0.993l1.585-8.052c0.019-0.066,0.053-0.128,0.101-0.186c0.047-0.057,0.12-0.104,0.221-0.143
				c0.101-0.038,0.229-0.064,0.386-0.079c0.157-0.014,0.351-0.021,0.579-0.021c0.227,0,0.416,0.007,0.563,0.021
				c0.147,0.014,0.262,0.041,0.343,0.079c0.08,0.038,0.133,0.085,0.156,0.143c0.024,0.057,0.031,0.119,0.022,0.186l-1.57,7.966
				c-0.058,0.248-0.101,0.505-0.129,0.771c-0.028,0.267-0.043,0.539-0.043,0.814c0,0.286,0.026,0.545,0.078,0.779
				c0.053,0.233,0.144,0.436,0.271,0.606c0.128,0.171,0.295,0.306,0.5,0.4c0.204,0.095,0.454,0.143,0.749,0.143
				c0.505,0,1.021-0.145,1.549-0.436c0.529-0.29,1.021-0.692,1.479-1.206c0.457-0.513,0.863-1.125,1.221-1.834
				s0.621-1.483,0.793-2.32l1.128-5.683c0.009-0.066,0.04-0.128,0.092-0.186c0.054-0.057,0.129-0.104,0.229-0.143
				c0.101-0.038,0.229-0.064,0.386-0.079c0.157-0.014,0.35-0.021,0.578-0.021s0.416,0.007,0.564,0.021
				c0.147,0.014,0.262,0.041,0.343,0.079c0.08,0.038,0.133,0.085,0.157,0.143c0.023,0.057,0.031,0.119,0.021,0.186L1932.8,52.469z"
				/>
		</g>
		<g enable-background="new    ">
			<path fill="#224444" d="M1959.115,52.469c-0.01,0.076-0.038,0.143-0.086,0.2c-0.048,0.057-0.114,0.103-0.2,0.136
				s-0.198,0.059-0.335,0.078c-0.139,0.019-0.308,0.029-0.506,0.029c-0.191,0-0.352-0.01-0.479-0.029
				c-0.129-0.019-0.229-0.045-0.3-0.078c-0.072-0.033-0.119-0.078-0.143-0.136c-0.024-0.057-0.026-0.124-0.007-0.2l0.471-2.412
				c-0.152,0.323-0.394,0.664-0.721,1.02c-0.329,0.357-0.714,0.688-1.157,0.992c-0.442,0.304-0.928,0.552-1.456,0.742
				c-0.528,0.19-1.063,0.286-1.606,0.286c-0.647,0-1.191-0.089-1.635-0.265c-0.441-0.176-0.799-0.418-1.07-0.728
				s-0.467-0.675-0.586-1.1c-0.119-0.423-0.178-0.886-0.178-1.392c0-0.314,0.021-0.635,0.063-0.963
				c0.043-0.329,0.098-0.659,0.164-0.993l1.585-8.052c0.02-0.066,0.053-0.128,0.1-0.186c0.048-0.057,0.121-0.104,0.222-0.143
				c0.101-0.038,0.229-0.064,0.386-0.079c0.157-0.014,0.35-0.021,0.578-0.021s0.416,0.007,0.564,0.021
				c0.146,0.014,0.262,0.041,0.343,0.079c0.08,0.038,0.133,0.085,0.157,0.143c0.023,0.057,0.03,0.119,0.021,0.186l-1.571,7.966
				c-0.057,0.248-0.099,0.505-0.128,0.771c-0.028,0.267-0.043,0.539-0.043,0.814c0,0.286,0.026,0.545,0.078,0.779
				c0.053,0.233,0.143,0.436,0.271,0.606c0.128,0.171,0.295,0.306,0.5,0.4c0.205,0.095,0.454,0.143,0.749,0.143
				c0.505,0,1.021-0.145,1.549-0.436c0.528-0.29,1.021-0.692,1.479-1.206c0.457-0.513,0.864-1.125,1.22-1.834
				c0.357-0.709,0.622-1.483,0.793-2.32l1.128-5.683c0.01-0.066,0.04-0.128,0.093-0.186s0.129-0.104,0.229-0.143
				c0.1-0.038,0.228-0.064,0.386-0.079c0.157-0.014,0.35-0.021,0.578-0.021c0.228,0,0.416,0.007,0.563,0.021
				c0.148,0.014,0.263,0.041,0.343,0.079c0.081,0.038,0.134,0.085,0.157,0.143c0.024,0.057,0.031,0.119,0.022,0.186L1959.115,52.469
				z"/>
		</g>
	</g>
	<g>
		<path fill="#F8DABC" d="M1472.745,27.903c4.386-7.309,38.011-7.309,38.011-7.309s26.314,58.479,26.314,64.327
			c0,5.848,0,16.082-4.385,20.468c-4.386,4.386-39.473,4.386-46.782,0c-7.31-4.385-26.315-13.157-30.701-26.315
			C1450.816,65.914,1468.359,35.213,1472.745,27.903"/>
		<path fill="#FF002C" d="M1507.013,20.594c-2.104,4.385-29.881,16.081-37.191,17.544c-7.31,1.461,0-14.62,4.386-17.544
			c4.386-2.923,38.011-2.923,38.011-2.923s16.081,4.385,20.468,14.619c4.385,10.234-1.462,17.543-1.462,17.543
			s-16.082-4.385-19.006-11.695C1509.294,30.827,1507.013,20.594,1507.013,20.594"/>
	</g>
	<g enable-background="new    ">
		<path fill="#224444" d="M1480.931,53.758c0,0.115-0.041,0.234-0.122,0.357c-0.081,0.124-0.24,0.295-0.479,0.514l-5.582,4.783
			l3.841,6.467c0.095,0.171,0.161,0.316,0.2,0.436c0.038,0.119,0.057,0.212,0.057,0.278c0,0.086-0.02,0.16-0.057,0.222
			c-0.039,0.062-0.107,0.111-0.207,0.149c-0.1,0.039-0.233,0.069-0.399,0.094c-0.167,0.023-0.374,0.035-0.621,0.035
			c-0.267,0-0.477-0.007-0.629-0.021c-0.152-0.013-0.276-0.041-0.371-0.078c-0.095-0.038-0.167-0.085-0.214-0.143
			c-0.048-0.057-0.091-0.128-0.128-0.214l-4.112-7.11l-1.413,7.124c-0.02,0.077-0.053,0.141-0.1,0.193
			c-0.048,0.052-0.122,0.097-0.222,0.136s-0.229,0.066-0.385,0.085c-0.158,0.019-0.351,0.028-0.579,0.028
			c-0.228,0-0.416-0.009-0.563-0.028c-0.148-0.019-0.262-0.045-0.343-0.079c-0.081-0.032-0.136-0.078-0.165-0.135
			c-0.028-0.058-0.032-0.124-0.014-0.201l3.812-19.074c0.02-0.076,0.05-0.142,0.093-0.2s0.114-0.105,0.215-0.143
			c0.099-0.038,0.228-0.066,0.385-0.085s0.354-0.028,0.592-0.028c0.229,0,0.417,0.009,0.564,0.028
			c0.148,0.019,0.262,0.048,0.343,0.085c0.081,0.038,0.131,0.085,0.149,0.143c0.02,0.057,0.023,0.124,0.015,0.2l-2.327,11.621
			l5.954-5.382c0.075-0.085,0.161-0.16,0.256-0.222c0.096-0.062,0.205-0.109,0.329-0.142c0.123-0.033,0.269-0.057,0.436-0.072
			c0.166-0.014,0.364-0.021,0.592-0.021c0.229,0,0.422,0.007,0.578,0.021c0.158,0.015,0.281,0.039,0.372,0.072
			c0.09,0.033,0.154,0.076,0.192,0.128C1480.911,53.632,1480.931,53.691,1480.931,53.758z"/>
	</g>
	<g enable-background="new    ">
		<path fill="#224444" d="M1508.707,53.758c0,0.115-0.041,0.234-0.121,0.357c-0.081,0.124-0.24,0.295-0.479,0.514l-5.582,4.783
			l3.841,6.467c0.095,0.171,0.161,0.316,0.2,0.436c0.037,0.119,0.057,0.212,0.057,0.278c0,0.086-0.02,0.16-0.057,0.222
			c-0.039,0.062-0.108,0.111-0.207,0.149c-0.1,0.039-0.234,0.069-0.399,0.094c-0.167,0.023-0.374,0.035-0.622,0.035
			c-0.267,0-0.477-0.007-0.628-0.021c-0.152-0.013-0.276-0.041-0.372-0.078c-0.095-0.038-0.166-0.085-0.214-0.143
			s-0.091-0.128-0.128-0.214l-4.111-7.11l-1.414,7.124c-0.02,0.077-0.053,0.141-0.1,0.193c-0.048,0.052-0.122,0.097-0.222,0.136
			c-0.101,0.039-0.228,0.066-0.385,0.085s-0.351,0.028-0.579,0.028s-0.416-0.009-0.564-0.028c-0.147-0.019-0.262-0.045-0.342-0.079
			c-0.081-0.032-0.137-0.078-0.164-0.135c-0.029-0.057-0.034-0.124-0.015-0.201l3.812-19.074c0.019-0.076,0.051-0.142,0.094-0.2
			s0.114-0.105,0.214-0.143c0.099-0.038,0.229-0.066,0.386-0.085s0.354-0.028,0.592-0.028c0.229,0,0.416,0.009,0.564,0.028
			c0.147,0.019,0.262,0.048,0.343,0.085c0.081,0.038,0.13,0.085,0.149,0.143c0.02,0.057,0.023,0.124,0.015,0.2l-2.327,11.621
			l5.953-5.382c0.076-0.085,0.161-0.16,0.257-0.222c0.096-0.062,0.204-0.109,0.329-0.142c0.123-0.033,0.269-0.057,0.435-0.072
			c0.167-0.014,0.365-0.021,0.593-0.021c0.229,0,0.422,0.007,0.578,0.021c0.158,0.015,0.281,0.039,0.372,0.072
			c0.091,0.033,0.155,0.076,0.192,0.128C1508.688,53.632,1508.707,53.691,1508.707,53.758z"/>
	</g>
	<g>
		<g>
			<path fill="#F8DABC" d="M1692.886,35.014c0,0,47.048-17.643,49.989,0c2.94,17.642,27.937,45.579,20.584,58.811
				c-7.351,13.233-67.633,16.173-80.864,8.821C1669.361,95.293,1692.886,35.014,1692.886,35.014"/>
			<path fill="#91B67E" d="M1692.805,10.36c12.608-10.087,33.624-7.31,42.397,0c8.771,7.309,7.309,20.467,11.695,27.777
				c4.385,7.309,21.93,10.233,21.93,10.233s1.461,7.309-10.233,8.772c-11.696,1.461-35.086-21.93-46.783-21.93
				c-11.695,0-19.564,27.821-25.133,29.259c-5.568,1.441-5.568-0.02-5.568-0.02s-16.081,0-17.543-7.309
				c-1.462-7.311,5.848-2.925,14.62-8.772C1686.956,42.523,1685.494,16.208,1692.805,10.36"/>
		</g>
		<g enable-background="new    ">
			<path fill="#224444" d="M1735.491,70.207c-0.028,0.162-0.128,0.276-0.3,0.342c-0.171,0.067-0.456,0.1-0.856,0.1
				c-0.2,0-0.361-0.01-0.485-0.028c-0.123-0.019-0.224-0.045-0.299-0.079c-0.076-0.033-0.127-0.076-0.15-0.128
				c-0.024-0.053-0.026-0.122-0.007-0.207l0.456-2.398c-0.123,0.313-0.348,0.649-0.671,1.006s-0.706,0.686-1.149,0.985
				c-0.442,0.3-0.936,0.548-1.478,0.743c-0.543,0.195-1.095,0.293-1.656,0.293c-0.561,0-1.049-0.075-1.463-0.222
				s-0.761-0.345-1.042-0.592c-0.281-0.247-0.51-0.536-0.686-0.864c-0.177-0.328-0.313-0.666-0.414-1.013
				c-0.101-0.347-0.167-0.697-0.199-1.05c-0.034-0.352-0.051-0.675-0.051-0.97c0-0.552,0.053-1.171,0.157-1.856
				c0.104-0.686,0.271-1.374,0.499-2.063c0.229-0.689,0.521-1.366,0.879-2.028c0.356-0.661,0.787-1.246,1.292-1.756
				c0.504-0.509,1.087-0.921,1.749-1.235c0.661-0.314,1.41-0.471,2.248-0.471c0.409,0,0.795,0.045,1.156,0.136
				c0.361,0.09,0.691,0.214,0.985,0.372c0.295,0.157,0.566,0.345,0.813,0.563c0.248,0.219,0.472,0.447,0.672,0.686l1.456-7.281
				c0.01-0.066,0.038-0.131,0.086-0.193c0.048-0.062,0.118-0.109,0.214-0.143s0.219-0.062,0.372-0.086
				c0.152-0.023,0.347-0.036,0.585-0.036c0.229,0,0.417,0.012,0.564,0.036c0.146,0.024,0.265,0.052,0.351,0.086
				c0.085,0.034,0.14,0.081,0.164,0.143c0.023,0.062,0.025,0.126,0.007,0.193L1735.491,70.207z M1735.035,60.756
				c-0.447-0.657-0.931-1.156-1.45-1.5c-0.519-0.342-1.101-0.513-1.748-0.513c-0.505,0-0.959,0.116-1.363,0.349
				c-0.405,0.234-0.77,0.545-1.093,0.935c-0.324,0.391-0.602,0.838-0.834,1.342c-0.234,0.505-0.428,1.026-0.58,1.563
				c-0.152,0.538-0.266,1.068-0.342,1.592c-0.076,0.523-0.115,1.004-0.115,1.441c0,0.924,0.157,1.631,0.472,2.121
				c0.314,0.491,0.819,0.735,1.514,0.735c0.523,0,1.049-0.142,1.577-0.428c0.528-0.286,1.021-0.681,1.478-1.185
				c0.458-0.504,0.862-1.104,1.214-1.799c0.353-0.694,0.614-1.456,0.785-2.284L1735.035,60.756z"/>
		</g>
		<g enable-background="new    ">
			<path fill="#224444" d="M1712.1,73.131c-0.029,0.162-0.128,0.276-0.3,0.343c-0.171,0.066-0.457,0.1-0.856,0.1
				c-0.2,0-0.362-0.009-0.485-0.028c-0.124-0.019-0.224-0.045-0.3-0.079c-0.076-0.033-0.127-0.076-0.15-0.128
				c-0.023-0.052-0.026-0.122-0.007-0.207l0.457-2.398c-0.124,0.314-0.348,0.649-0.672,1.006c-0.323,0.357-0.706,0.686-1.149,0.985
				c-0.441,0.3-0.935,0.547-1.478,0.742c-0.542,0.195-1.095,0.293-1.655,0.293c-0.562,0-1.05-0.074-1.464-0.222
				s-0.761-0.345-1.042-0.592c-0.281-0.248-0.51-0.536-0.686-0.864c-0.176-0.328-0.313-0.666-0.414-1.013
				c-0.1-0.347-0.166-0.697-0.199-1.05c-0.034-0.352-0.051-0.675-0.051-0.971c0-0.552,0.053-1.171,0.157-1.856
				c0.104-0.686,0.271-1.374,0.5-2.063s0.521-1.366,0.878-2.027s0.788-1.247,1.292-1.756c0.504-0.509,1.087-0.921,1.749-1.235
				c0.661-0.314,1.41-0.471,2.249-0.471c0.409,0,0.794,0.045,1.156,0.135c0.361,0.09,0.69,0.214,0.985,0.372
				c0.295,0.157,0.565,0.345,0.813,0.563c0.247,0.22,0.472,0.447,0.671,0.686l1.457-7.281c0.01-0.066,0.037-0.131,0.085-0.193
				c0.048-0.062,0.118-0.109,0.215-0.143c0.095-0.033,0.219-0.062,0.371-0.086c0.152-0.023,0.348-0.036,0.586-0.036
				c0.228,0,0.416,0.012,0.563,0.036c0.147,0.024,0.265,0.053,0.351,0.086c0.085,0.034,0.14,0.081,0.164,0.143
				c0.023,0.062,0.025,0.126,0.007,0.193L1712.1,73.131z M1711.643,63.68c-0.447-0.657-0.93-1.157-1.449-1.5
				c-0.519-0.343-1.102-0.514-1.748-0.514c-0.504,0-0.959,0.117-1.364,0.35c-0.405,0.233-0.769,0.545-1.092,0.935
				c-0.324,0.39-0.602,0.838-0.835,1.342c-0.234,0.505-0.427,1.026-0.578,1.563c-0.152,0.538-0.268,1.068-0.343,1.592
				c-0.077,0.523-0.115,1.004-0.115,1.442c0,0.923,0.157,1.63,0.472,2.12c0.314,0.491,0.818,0.735,1.514,0.735
				c0.522,0,1.049-0.142,1.578-0.428c0.527-0.286,1.02-0.68,1.477-1.185s0.861-1.104,1.214-1.799
				c0.353-0.694,0.614-1.456,0.784-2.284L1711.643,63.68z"/>
		</g>
	</g>
	<g>
		<g>
			<path fill="#907CE1" d="M1008.163,52.756c-14.619,5.849-29.239,1.462-32.163-4.385c0,0,0,23.392,8.771,29.239
				c8.772,5.848,24.853,4.386,30.702-2.924L1008.163,52.756z"/>
			<path fill="#F8DABC" d="M1024.245,20.594h45.319c0,0,13.157,39.474,13.157,57.016c0,17.544-7.311,26.315-24.854,27.777
				c-17.543,1.462-54.091-4.385-57.015-27.777C997.93,54.218,1024.245,20.594,1024.245,20.594"/>
			<path fill="#907CE1" d="M1054.944,41.061c-21.679-3.615-38.009-10.234-35.085-20.468c2.924-10.233,11.695-17.544,21.928-16.081
				c10.233,1.461,51.168,11.695,51.168,21.929C1092.955,36.675,1063.717,42.523,1054.944,41.061"/>
		</g>
		<g enable-background="new    ">
			<path fill="#224444" d="M1033.465,53.477c0,0.095-0.015,0.221-0.043,0.378c-0.027,0.157-0.068,0.311-0.121,0.463
				c-0.052,0.153-0.114,0.281-0.186,0.386c-0.07,0.104-0.149,0.157-0.235,0.157c-0.114,0-0.25-0.045-0.407-0.136
				c-0.156-0.091-0.35-0.193-0.578-0.307c-0.228-0.114-0.501-0.219-0.82-0.314c-0.319-0.095-0.697-0.142-1.135-0.142
				c-0.419,0-0.79,0.06-1.114,0.179c-0.323,0.119-0.595,0.28-0.813,0.485c-0.219,0.204-0.385,0.437-0.499,0.7
				c-0.114,0.261-0.171,0.535-0.171,0.821c0,0.38,0.125,0.697,0.378,0.95c0.252,0.252,0.569,0.479,0.949,0.678
				c0.38,0.2,0.793,0.397,1.235,0.593c0.442,0.195,0.852,0.433,1.228,0.714c0.376,0.281,0.69,0.619,0.942,1.013
				c0.251,0.395,0.378,0.892,0.378,1.492c0,0.667-0.131,1.288-0.393,1.864c-0.262,0.576-0.638,1.071-1.128,1.484
				c-0.49,0.414-1.083,0.738-1.777,0.971c-0.695,0.233-1.471,0.35-2.327,0.35c-0.448,0-0.868-0.033-1.265-0.1
				c-0.395-0.067-0.752-0.152-1.07-0.257c-0.318-0.105-0.592-0.222-0.82-0.35s-0.405-0.25-0.528-0.364
				c-0.076-0.076-0.131-0.155-0.165-0.236c-0.033-0.081-0.05-0.179-0.05-0.292c0-0.076,0.005-0.167,0.015-0.271
				c0.01-0.104,0.028-0.214,0.058-0.328c0.028-0.115,0.06-0.224,0.093-0.329s0.073-0.2,0.121-0.286
				c0.048-0.085,0.095-0.154,0.143-0.207c0.048-0.052,0.105-0.078,0.171-0.078c0.114,0,0.253,0.065,0.414,0.193
				c0.162,0.128,0.374,0.267,0.636,0.414s0.587,0.286,0.978,0.415c0.391,0.128,0.876,0.192,1.456,0.192
				c0.523,0,0.974-0.064,1.35-0.192c0.376-0.129,0.688-0.301,0.936-0.515c0.247-0.214,0.431-0.463,0.55-0.75
				c0.118-0.286,0.178-0.585,0.178-0.899c0-0.4-0.124-0.726-0.371-0.978c-0.247-0.251-0.559-0.48-0.936-0.685
				c-0.376-0.205-0.782-0.407-1.22-0.607c-0.438-0.201-0.846-0.436-1.222-0.707c-0.376-0.271-0.689-0.605-0.941-1
				c-0.253-0.395-0.378-0.897-0.378-1.507c0-0.628,0.123-1.211,0.37-1.748c0.248-0.538,0.598-1.005,1.05-1.399
				c0.452-0.395,0.994-0.701,1.627-0.921c0.634-0.219,1.335-0.329,2.106-0.329c0.361,0,0.712,0.029,1.049,0.086
				c0.338,0.057,0.649,0.128,0.936,0.214c0.286,0.085,0.533,0.181,0.742,0.286c0.21,0.104,0.367,0.209,0.472,0.313
				C1033.412,53.13,1033.465,53.277,1033.465,53.477z"/>
		</g>
		<g enable-background="new    ">
			<path fill="#224444" d="M1055.394,52.015c0,0.095-0.015,0.222-0.043,0.378s-0.069,0.312-0.121,0.464
				c-0.052,0.152-0.114,0.281-0.186,0.386c-0.071,0.104-0.149,0.157-0.235,0.157c-0.114,0-0.25-0.045-0.407-0.136
				c-0.157-0.09-0.35-0.193-0.578-0.307c-0.229-0.115-0.501-0.22-0.82-0.314c-0.319-0.096-0.697-0.143-1.135-0.143
				c-0.419,0-0.791,0.06-1.114,0.179c-0.323,0.119-0.595,0.28-0.813,0.485s-0.386,0.438-0.5,0.699s-0.171,0.535-0.171,0.822
				c0,0.38,0.126,0.696,0.379,0.949c0.252,0.253,0.568,0.479,0.949,0.679c0.38,0.2,0.792,0.397,1.234,0.592
				c0.442,0.195,0.853,0.433,1.229,0.714c0.375,0.281,0.689,0.619,0.941,1.014c0.252,0.395,0.379,0.892,0.379,1.492
				c0,0.667-0.131,1.288-0.393,1.863c-0.262,0.576-0.639,1.071-1.128,1.484c-0.491,0.414-1.083,0.738-1.778,0.971
				c-0.694,0.233-1.471,0.35-2.327,0.35c-0.447,0-0.868-0.033-1.264-0.1c-0.395-0.067-0.752-0.152-1.07-0.257
				c-0.319-0.105-0.593-0.222-0.82-0.351c-0.229-0.128-0.405-0.25-0.528-0.364c-0.077-0.076-0.132-0.155-0.165-0.236
				s-0.05-0.178-0.05-0.292c0-0.076,0.005-0.166,0.015-0.271c0.01-0.104,0.028-0.214,0.057-0.329
				c0.029-0.114,0.06-0.223,0.093-0.328c0.033-0.105,0.074-0.2,0.121-0.286c0.048-0.085,0.096-0.155,0.144-0.207
				s0.104-0.079,0.171-0.079c0.114,0,0.252,0.064,0.414,0.193c0.162,0.128,0.373,0.267,0.636,0.414
				c0.261,0.148,0.587,0.286,0.978,0.414s0.876,0.193,1.456,0.193c0.523,0,0.973-0.064,1.35-0.193
				c0.376-0.128,0.688-0.3,0.935-0.514c0.248-0.214,0.432-0.464,0.551-0.75c0.118-0.286,0.178-0.586,0.178-0.9
				c0-0.399-0.124-0.725-0.371-0.978c-0.248-0.252-0.56-0.481-0.936-0.685c-0.376-0.205-0.783-0.407-1.221-0.607
				s-0.845-0.436-1.221-0.707c-0.376-0.271-0.69-0.604-0.941-1c-0.253-0.395-0.379-0.897-0.379-1.506
				c0-0.628,0.124-1.211,0.371-1.749c0.247-0.538,0.598-1.004,1.05-1.399c0.452-0.395,0.994-0.701,1.627-0.92
				c0.633-0.219,1.335-0.329,2.106-0.329c0.361,0,0.711,0.029,1.049,0.085s0.649,0.129,0.936,0.215
				c0.285,0.085,0.533,0.18,0.742,0.285c0.209,0.104,0.367,0.209,0.471,0.314C1055.341,51.668,1055.394,51.815,1055.394,52.015z"/>
		</g>
	</g>
</g>
</svg>
